<svg xmlns="http://www.w3.org/2000/svg" enable-background="new 0 0 64 64" viewBox="0 0 64 64" id="full-time-student"><path fill="#37815b" d="M62 24l-4 8-2.12-2.47v-.01L52 25l2.87-.29C51.78 15.02 42.71 8 32 8 19.77 8 9.67 17.16 8.19 29H4.16C5.66 14.95 17.55 4 32 4c12.79 0 23.58 8.59 26.92 20.31L62 24zM59.84 35C58.34 49.05 46.45 60 32 60 19.21 60 8.42 51.41 5.08 39.69L2 40l2.23-4.46L6 32l2.12 2.48L12 39l-2.87.29C12.22 48.98 21.29 56 32 56c12.23 0 22.33-9.16 23.81-21H59.84z"></path><rect width="2" height="4" x="31" y="11" fill="#f5b94c"></rect><rect width="2" height="4" x="31" y="49" fill="#f5b94c"></rect><rect width="4" height="2" x="49" y="31" fill="#f5b94c"></rect><rect width="4" height="2" x="11" y="31" fill="#f5b94c"></rect><rect width="2" height="4.213" x="17.49" y="16.383" fill="#f5b94c" transform="rotate(-44.992 18.491 18.49)"></rect><rect width="2" height="4.213" x="44.511" y="43.404" fill="#f5b94c" transform="rotate(-44.992 45.515 45.513)"></rect><rect width="4.213" height="2" x="43.404" y="17.49" fill="#f5b94c" transform="rotate(-45.001 45.51 18.49)"></rect><rect width="4.213" height="2" x="16.383" y="44.51" fill="#f5b94c" transform="rotate(-45.001 18.489 45.51)"></rect><rect width="2" height="7.999" x="31" y="17" fill="#dd4334"></rect><rect width="6.364" height="2" x="20.568" y="39.25" fill="#dd4334" transform="rotate(-45.001 23.75 40.25)"></rect><path fill="#5a6a72" d="M23,31.625V37c0,2.209,4.029,4,9,4s9-1.791,9-4v-5.375"></path><path fill="#43525b" d="M25,35.375c0,2.209,4.029,4,9,4c2.652,0,5.028-0.513,6.675-1.324C40.881,37.716,41,37.364,41,37
			v-5.375H25V35.375z"></path><rect width="2" height="5" x="44" y="29" fill="#43525b"></rect><rect width="2" height="3" x="44" y="36" fill="#43525b"></rect><polygon fill="#2d393f" points="32 23 16 29 32 35 48 29"></polygon><path fill="#47c0ea" d="M45,37c-1.103,0-2-0.897-2-2s0.897-2,2-2s2,0.897,2,2S46.103,37,45,37z M45,34.999V35V34.999z"></path></svg>