<svg xmlns="http://www.w3.org/2000/svg" xmlns:xlink="http://www.w3.org/1999/xlink" width="42" height="42" id="business"><defs><linearGradient id="b" x1="868.253" x2="937.656" y1="521.354" y2="588.736" gradientTransform="translate(-1161.097 316.47) scale(1.34562)" gradientUnits="userSpaceOnUse" xlink:href="#a"></linearGradient><linearGradient id="a"><stop offset="0" stop-color="#24f3d2"></stop><stop offset=".394" stop-color="#0674f0"></stop><stop offset=".507" stop-color="#6961b5"></stop><stop offset=".813" stop-color="#f34660"></stop><stop offset="1" stop-color="#ee078d"></stop></linearGradient></defs><g transform="translate(0 -1010.362)"><rect width="42" height="42" y="1010.362" fill="url(#b)" rx="8.876" ry="8.876"></rect><path fill="#fff" style="line-height:normal;text-indent:0;text-align:start;text-decoration-line:none;text-decoration-style:solid;text-decoration-color:#000;text-transform:none;block-progression:tb;isolation:auto;mix-blend-mode:normal" d="M22 1016.362c-1.65 0-3 1.35-3 3 0 .051.013.098.016.149l-7.47 5.09a2.465 2.465 0 0 0-1.046-.239 2.508 2.508 0 0 0-2.5 2.5c0 1.024.625 1.908 1.512 2.293l-.584 8.28A2.506 2.506 0 0 0 7 1039.861c0 1.375 1.125 2.5 2.5 2.5a2.49 2.49 0 0 0 1.75-.72l3.754 2.25a2.505 2.505 0 0 0 2.496 2.47 2.505 2.505 0 0 0 2.414-1.885l10.453-2.332a2.499 2.499 0 0 0 2.133 1.217c1.375 0 2.5-1.125 2.5-2.5a2.505 2.505 0 0 0-2.44-2.494l-.857-7.33a2.496 2.496 0 0 0 1.297-2.176c0-1.375-1.125-2.5-2.5-2.5-.141 0-.277.018-.412.041l-5.195-6.289c.063-.242.107-.49.107-.752 0-1.65-1.35-3-3-3zm0 1c1.11 0 2 .89 2 2 0 1.11-.89 2-2 2-1.11 0-2-.89-2-2 0-1.11.89-2 2-2zm-2.746 3.196a3.014 3.014 0 0 0 1.367 1.449l-2.353 6.879a2.487 2.487 0 0 0-1.725.941l-3.742-1.992c.128-.3.199-.628.199-.973 0-.62-.237-1.184-.615-1.623l6.869-4.682zm5.168.556 4.687 5.674a2.504 2.504 0 0 0-1.109 2.074c0 .13.02.254.04.38l-7.067 1.856a2.495 2.495 0 0 0-1.688-2.097l2.287-6.684c.141.02.282.045.428.045.996 0 1.876-.496 2.422-1.248zm-13.922 4.248c.834 0 1.5.666 1.5 1.5 0 .835-.666 1.5-1.5 1.5s-1.5-.665-1.5-1.5c0-.834.666-1.5 1.5-1.5zm20 2c.834 0 1.5.666 1.5 1.5 0 .835-.666 1.5-1.5 1.5s-1.5-.665-1.5-1.5c0-.834.666-1.5 1.5-1.5zm-18.275 1.299 3.869 2.059c-.056.206-.094.42-.094.642 0 1.017.617 1.894 1.494 2.283l-.172 7.735a2.503 2.503 0 0 0-2.105 1.474l-3.408-2.043c.122-.293.191-.612.191-.949 0-1.227-.898-2.25-2.068-2.457l.566-8.043h.002c.669 0 1.275-.27 1.725-.701zm6.275 1.201c.834 0 1.5.666 1.5 1.5 0 .835-.666 1.5-1.5 1.5s-1.5-.665-1.5-1.5c0-.834.666-1.5 1.5-1.5zm9.889.322a2.5 2.5 0 0 0 2.111 1.178c.08 0 .155-.018.232-.025l.844 7.21a2.505 2.505 0 0 0-1.576 2.316c0 .114.018.223.033.334l-10.076 2.246a2.5 2.5 0 0 0-1.637-1.93l.17-7.65h.01a2.502 2.502 0 0 0 2.356-1.7l7.533-1.978zM9.5 1038.363c.834 0 1.5.666 1.5 1.5 0 .835-.666 1.5-1.5 1.5s-1.5-.665-1.5-1.5c0-.834.666-1.5 1.5-1.5zm23 1c.834 0 1.5.666 1.5 1.5 0 .835-.666 1.5-1.5 1.5s-1.5-.665-1.5-1.5c0-.834.666-1.5 1.5-1.5zm-15 3c.834 0 1.5.666 1.5 1.5 0 .835-.666 1.5-1.5 1.5s-1.5-.665-1.5-1.5c0-.834.666-1.5 1.5-1.5z" color="#000" font-family="sans-serif" font-weight="400" overflow="visible"></path></g></svg>